<svg width="103" height="60" viewBox="0 0 103 60" fill="none" xmlns="http://www.w3.org/2000/svg">
<g opacity="0.7">
<path d="M1.73445 17.0902L7.73023 17.0902C7.96218 17.0902 8.17655 17.2138 8.29276 17.4146L23.0261 42.8631C23.277 43.2964 22.9643 43.8387 22.4636 43.8387L16.4678 43.8387C16.2358 43.8387 16.0215 43.7151 15.9053 43.5144L1.17192 18.0659C0.921043 17.6326 1.23373 17.0902 1.73445 17.0902Z" fill="#EEEEEE" stroke="#EEEEEE" stroke-width="0.7"/>
<path d="M53.1983 17.057L59.1941 17.057C59.426 17.057 59.6404 17.1806 59.7566 17.3814L74.49 42.8299C74.7408 43.2632 74.4282 43.8055 73.9274 43.8055L67.9317 43.8055C67.6997 43.8055 67.4853 43.6819 67.3691 43.4812L52.6358 18.0327C52.3849 17.5994 52.6976 17.057 53.1983 17.057Z" fill="#EEEEEE" stroke="#EEEEEE" stroke-width="0.7"/>
<path d="M41.1466 17.0902L47.1423 17.0902C47.3743 17.0902 47.5887 17.2138 47.7049 17.4146L62.4382 42.8631C62.6891 43.2964 62.3764 43.8387 61.8757 43.8387L55.8799 43.8387C55.648 43.8387 55.4336 43.7151 55.3174 43.5144L40.584 18.0659C40.3332 17.6326 40.6458 17.0902 41.1466 17.0902Z" fill="#EEEEEE" stroke="#EEEEEE" stroke-width="0.7"/>
<path d="M42.1307 27.3265C42.5151 26.6598 42.0339 25.8269 41.2644 25.827L35.267 25.8271C34.9095 25.8272 34.5793 26.018 34.4007 26.3276L24.9678 42.6876C24.5834 43.3542 25.0646 44.1871 25.8342 44.1871L31.8315 44.1869C32.189 44.1869 32.5193 43.9961 32.6978 43.6864L42.1307 27.3265Z" fill="#EEEEEE"/>
<path d="M86.8468 18.2393C87.2313 17.5726 86.7502 16.7396 85.9805 16.7396L79.9834 16.7398C79.6261 16.7398 79.2958 16.9305 79.1173 17.2401L70.8948 31.4937C70.5102 32.1603 70.9914 32.9934 71.761 32.9934L77.7581 32.9932C78.1155 32.9932 78.4457 32.8024 78.6243 32.4929L86.8468 18.2393Z" fill="#EEEEEE"/>
<path d="M99.7594 42.2447C100.573 42.799 100.18 44.0711 99.1961 44.071L91.3486 44.0704C91.1477 44.0704 90.9515 44.0098 90.7855 43.8967L78.8999 35.7961C78.0866 35.2418 78.479 33.9697 79.4631 33.9698L87.3107 33.9704C87.5116 33.9704 87.7078 34.031 87.8738 34.1441L99.7594 42.2447Z" fill="#EEEEEE"/>
</g>
</svg>
