<svg width="140" height="82" viewBox="0 0 140 82" fill="none" xmlns="http://www.w3.org/2000/svg">
<path d="M1.73445 23.2282L10.7761 23.2282C11.008 23.2282 11.2224 23.3518 11.3386 23.5525L31.8987 59.0655C32.1496 59.4988 31.8369 60.0411 31.3362 60.0411L22.2946 60.0411C22.0626 60.0411 21.8483 59.9175 21.7321 59.7168L1.17192 24.2038C0.921044 23.7705 1.23373 23.2282 1.73445 23.2282Z" fill="#010213" stroke="#CC00FF" stroke-width="0.7"/>
<path d="M72.0684 23.1828L81.11 23.1828C81.342 23.1828 81.5564 23.3064 81.6726 23.5071L102.233 59.02C102.484 59.4534 102.171 59.9957 101.67 59.9957L92.6286 59.9957C92.3966 59.9957 92.1823 59.8721 92.066 59.6714L71.5059 24.1584C71.255 23.7251 71.5677 23.1828 72.0684 23.1828Z" fill="#010213" stroke="#CC00FF" stroke-width="0.7"/>
<path d="M55.5987 23.2282L64.6403 23.2282C64.8723 23.2282 65.0866 23.3518 65.2028 23.5525L85.763 59.0655C86.0138 59.4988 85.7012 60.0411 85.2004 60.0411L76.1588 60.0411C75.9269 60.0411 75.7125 59.9175 75.5963 59.7168L55.0362 24.2038C54.7853 23.7705 55.098 23.2282 55.5987 23.2282Z" fill="#010213" stroke="#CC00FF" stroke-width="0.7"/>
<path d="M57.8954 36.7964C58.2798 36.1297 57.7986 35.2969 57.029 35.2969L47.9861 35.2972C47.6287 35.2972 47.2984 35.488 47.1199 35.7977L33.8054 58.8896C33.421 59.5563 33.9022 60.3891 34.6718 60.3891L43.7147 60.3888C44.0721 60.3888 44.4024 60.198 44.5809 59.8883L57.8954 36.7964Z" fill="#CC00FF"/>
<path d="M119.008 24.3769C119.392 23.7103 118.911 22.8772 118.141 22.8773L109.099 22.8775C108.741 22.8775 108.411 23.0683 108.233 23.3778L96.5723 43.5911C96.1877 44.2578 96.6688 45.0908 97.4385 45.0908L106.481 45.0905C106.838 45.0905 107.169 44.8998 107.347 44.5902L119.008 24.3769Z" fill="#CC00FF"/>
<path d="M137.32 58.4041C138.133 58.9584 137.741 60.2305 136.757 60.2304L124.729 60.2294C124.529 60.2294 124.332 60.1689 124.166 60.0558L106.847 48.2516C106.033 47.6973 106.426 46.4251 107.41 46.4252L119.437 46.4262C119.638 46.4262 119.834 46.4868 120 46.5999L137.32 58.4041Z" fill="#1BF1FF"/>
</svg>
